<mxfile host="app.diagrams.net" modified="2022-01-05T15:45:57.164Z" agent="5.0 (Macintosh; Intel Mac OS X 10_15_7) AppleWebKit/605.1.15 (KHTML, like Gecko) Version/15.1 Safari/605.1.15" etag="BlzZtYiwOgQMi3MV6Jd-" version="16.2.2" type="github" pages="2">
  <diagram id="27UEhvcbevQ5RNf_Fo5W" name="Status Quo">
    <mxGraphModel dx="933" dy="583" grid="1" gridSize="10" guides="1" tooltips="1" connect="1" arrows="1" fold="1" page="1" pageScale="1" pageWidth="827" pageHeight="1169" math="0" shadow="0">
      <root>
        <mxCell id="0" />
        <mxCell id="1" parent="0" />
        <mxCell id="eU_o_KIkQ3SQvetF1IrI-12" value="CHECKOUT" style="ellipse;whiteSpace=wrap;html=1;fontStyle=1;verticalAlign=top;" vertex="1" parent="1">
          <mxGeometry x="294" y="280" width="160" height="80" as="geometry" />
        </mxCell>
        <mxCell id="eU_o_KIkQ3SQvetF1IrI-13" value="PRODUCTS" style="ellipse;whiteSpace=wrap;html=1;fontStyle=1;verticalAlign=top;" vertex="1" parent="1">
          <mxGeometry x="80" y="410" width="160" height="90" as="geometry" />
        </mxCell>
        <mxCell id="eU_o_KIkQ3SQvetF1IrI-17" value="" style="endArrow=classic;html=1;rounded=0;exitX=0.033;exitY=0.65;exitDx=0;exitDy=0;exitPerimeter=0;entryX=0.5;entryY=0;entryDx=0;entryDy=0;dashed=1;" edge="1" parent="1" target="eU_o_KIkQ3SQvetF1IrI-43">
          <mxGeometry width="50" height="50" relative="1" as="geometry">
            <mxPoint x="294.00000000000006" y="330" as="sourcePoint" />
            <mxPoint x="210" y="400" as="targetPoint" />
          </mxGeometry>
        </mxCell>
        <mxCell id="eU_o_KIkQ3SQvetF1IrI-24" value="FULFILLMENT" style="ellipse;whiteSpace=wrap;html=1;fontStyle=1;verticalAlign=top;" vertex="1" parent="1">
          <mxGeometry x="500" y="415" width="160" height="80" as="geometry" />
        </mxCell>
        <mxCell id="eU_o_KIkQ3SQvetF1IrI-29" value="" style="endArrow=classic;html=1;rounded=0;exitX=1;exitY=0.5;exitDx=0;exitDy=0;entryX=-0.058;entryY=0.483;entryDx=0;entryDy=0;entryPerimeter=0;dashed=1;" edge="1" parent="1" source="eU_o_KIkQ3SQvetF1IrI-13" target="eU_o_KIkQ3SQvetF1IrI-42">
          <mxGeometry width="50" height="50" relative="1" as="geometry">
            <mxPoint x="304" y="340" as="sourcePoint" />
            <mxPoint x="470" y="455" as="targetPoint" />
          </mxGeometry>
        </mxCell>
        <mxCell id="eU_o_KIkQ3SQvetF1IrI-31" value="" style="endArrow=classic;html=1;rounded=0;dashed=1;" edge="1" parent="1" source="eU_o_KIkQ3SQvetF1IrI-12">
          <mxGeometry width="50" height="50" relative="1" as="geometry">
            <mxPoint x="250" y="465.0000000000001" as="sourcePoint" />
            <mxPoint x="480" y="440" as="targetPoint" />
          </mxGeometry>
        </mxCell>
        <mxCell id="eU_o_KIkQ3SQvetF1IrI-33" value="" style="shape=cylinder3;whiteSpace=wrap;html=1;boundedLbl=1;backgroundOutline=1;size=4.285714285714278;" vertex="1" parent="1">
          <mxGeometry x="358.5" y="330" width="31" height="20" as="geometry" />
        </mxCell>
        <mxCell id="eU_o_KIkQ3SQvetF1IrI-35" value="" style="shape=cylinder3;whiteSpace=wrap;html=1;boundedLbl=1;backgroundOutline=1;size=4.285714285714278;" vertex="1" parent="1">
          <mxGeometry x="144.5" y="470" width="31" height="20" as="geometry" />
        </mxCell>
        <mxCell id="eU_o_KIkQ3SQvetF1IrI-36" value="" style="shape=cylinder3;whiteSpace=wrap;html=1;boundedLbl=1;backgroundOutline=1;size=4.285714285714278;" vertex="1" parent="1">
          <mxGeometry x="564.5" y="470" width="31" height="20" as="geometry" />
        </mxCell>
        <mxCell id="eU_o_KIkQ3SQvetF1IrI-37" value="Orders API" style="rounded=0;whiteSpace=wrap;html=1;fontSize=6;" vertex="1" parent="1">
          <mxGeometry x="430" y="320" width="40" height="20" as="geometry" />
        </mxCell>
        <mxCell id="eU_o_KIkQ3SQvetF1IrI-39" value="" style="endArrow=classic;html=1;rounded=0;exitX=0;exitY=0;exitDx=0;exitDy=0;entryX=0.5;entryY=1;entryDx=0;entryDy=0;dashed=1;" edge="1" parent="1" source="eU_o_KIkQ3SQvetF1IrI-24" target="eU_o_KIkQ3SQvetF1IrI-37">
          <mxGeometry width="50" height="50" relative="1" as="geometry">
            <mxPoint x="250" y="465" as="sourcePoint" />
            <mxPoint x="510" y="465" as="targetPoint" />
          </mxGeometry>
        </mxCell>
        <mxCell id="eU_o_KIkQ3SQvetF1IrI-42" value="Inventory API" style="rounded=0;whiteSpace=wrap;html=1;fontSize=6;" vertex="1" parent="1">
          <mxGeometry x="480" y="445" width="40" height="20" as="geometry" />
        </mxCell>
        <mxCell id="eU_o_KIkQ3SQvetF1IrI-43" value="Articles API" style="rounded=0;whiteSpace=wrap;html=1;fontSize=6;" vertex="1" parent="1">
          <mxGeometry x="200" y="410" width="40" height="20" as="geometry" />
        </mxCell>
        <mxCell id="eU_o_KIkQ3SQvetF1IrI-45" value="UI" style="rounded=0;whiteSpace=wrap;html=1;fontSize=6;" vertex="1" parent="1">
          <mxGeometry x="355.5" y="264" width="36" height="20" as="geometry" />
        </mxCell>
        <mxCell id="eU_o_KIkQ3SQvetF1IrI-46" value="UI" style="rounded=0;whiteSpace=wrap;html=1;fontSize=6;" vertex="1" parent="1">
          <mxGeometry x="140.5" y="395" width="36" height="20" as="geometry" />
        </mxCell>
        <mxCell id="eU_o_KIkQ3SQvetF1IrI-47" value="UI" style="rounded=0;whiteSpace=wrap;html=1;fontSize=6;" vertex="1" parent="1">
          <mxGeometry x="562.5" y="400" width="36" height="20" as="geometry" />
        </mxCell>
        <mxCell id="eU_o_KIkQ3SQvetF1IrI-48" value="Business Intelligence" style="ellipse;whiteSpace=wrap;html=1;fontStyle=1;verticalAlign=top;fontColor=#CC0000;strokeColor=#CC0000;" vertex="1" parent="1">
          <mxGeometry x="270" y="600" width="160" height="80" as="geometry" />
        </mxCell>
        <mxCell id="eU_o_KIkQ3SQvetF1IrI-49" value="" style="shape=cylinder3;whiteSpace=wrap;html=1;boundedLbl=1;backgroundOutline=1;size=6.931034482758662;strokeColor=#CC0000;" vertex="1" parent="1">
          <mxGeometry x="315" y="635" width="70" height="40" as="geometry" />
        </mxCell>
        <mxCell id="eU_o_KIkQ3SQvetF1IrI-50" value="" style="endArrow=classic;html=1;rounded=0;fontSize=6;fontColor=#CC0000;entryX=0.5;entryY=0;entryDx=0;entryDy=0;entryPerimeter=0;exitX=0.5;exitY=1;exitDx=0;exitDy=0;exitPerimeter=0;strokeColor=#CC0000;" edge="1" parent="1" source="eU_o_KIkQ3SQvetF1IrI-33" target="eU_o_KIkQ3SQvetF1IrI-49">
          <mxGeometry width="50" height="50" relative="1" as="geometry">
            <mxPoint x="530" y="260" as="sourcePoint" />
            <mxPoint x="730" y="230" as="targetPoint" />
          </mxGeometry>
        </mxCell>
        <mxCell id="eU_o_KIkQ3SQvetF1IrI-51" value="" style="endArrow=classic;html=1;rounded=0;fontSize=6;fontColor=#CC0000;exitX=0.5;exitY=1;exitDx=0;exitDy=0;exitPerimeter=0;strokeColor=#CC0000;entryX=0.145;entryY=0;entryDx=0;entryDy=2.0100000000000118;entryPerimeter=0;" edge="1" parent="1" source="eU_o_KIkQ3SQvetF1IrI-35" target="eU_o_KIkQ3SQvetF1IrI-49">
          <mxGeometry width="50" height="50" relative="1" as="geometry">
            <mxPoint x="399.5" y="350" as="sourcePoint" />
            <mxPoint x="770" y="373" as="targetPoint" />
          </mxGeometry>
        </mxCell>
        <mxCell id="eU_o_KIkQ3SQvetF1IrI-52" value="" style="endArrow=classic;html=1;rounded=0;fontSize=6;fontColor=#CC0000;exitX=0.5;exitY=1;exitDx=0;exitDy=0;exitPerimeter=0;strokeColor=#CC0000;entryX=0.855;entryY=0;entryDx=0;entryDy=2.0100000000000118;entryPerimeter=0;" edge="1" parent="1" source="eU_o_KIkQ3SQvetF1IrI-36" target="eU_o_KIkQ3SQvetF1IrI-49">
          <mxGeometry width="50" height="50" relative="1" as="geometry">
            <mxPoint x="185.5" y="490.0000000000001" as="sourcePoint" />
            <mxPoint x="780" y="383" as="targetPoint" />
          </mxGeometry>
        </mxCell>
        <mxCell id="eU_o_KIkQ3SQvetF1IrI-58" value="Reports" style="rounded=0;whiteSpace=wrap;html=1;fontSize=6;strokeColor=#CC0000;fontColor=#CC0000;" vertex="1" parent="1">
          <mxGeometry x="250" y="630" width="36" height="20" as="geometry" />
        </mxCell>
        <mxCell id="eU_o_KIkQ3SQvetF1IrI-59" value="Carts&lt;br&gt;Payment Events&lt;br&gt;Orders&lt;br&gt;Risk" style="text;html=1;strokeColor=none;fillColor=none;align=center;verticalAlign=middle;whiteSpace=wrap;rounded=0;fontSize=6;fontColor=#CC0000;" vertex="1" parent="1">
          <mxGeometry x="298.5" y="555" width="60" height="30" as="geometry" />
        </mxCell>
        <mxCell id="eU_o_KIkQ3SQvetF1IrI-60" value="Order Progress&lt;br&gt;Shipments&lt;br&gt;Inventory&lt;br&gt;Returns" style="text;html=1;strokeColor=none;fillColor=none;align=center;verticalAlign=middle;whiteSpace=wrap;rounded=0;fontSize=6;fontColor=#CC0000;" vertex="1" parent="1">
          <mxGeometry x="430" y="590" width="60" height="30" as="geometry" />
        </mxCell>
        <mxCell id="eU_o_KIkQ3SQvetF1IrI-61" value="Articles&lt;br&gt;Searches&lt;br&gt;Click Stream&lt;br&gt;Access Logs" style="text;html=1;strokeColor=none;fillColor=none;align=center;verticalAlign=middle;whiteSpace=wrap;rounded=0;fontSize=6;fontColor=#CC0000;" vertex="1" parent="1">
          <mxGeometry x="210" y="580" width="60" height="30" as="geometry" />
        </mxCell>
        <mxCell id="eU_o_KIkQ3SQvetF1IrI-64" value="Backend" style="rounded=0;whiteSpace=wrap;html=1;fontSize=6;" vertex="1" parent="1">
          <mxGeometry x="142" y="440" width="36" height="20" as="geometry" />
        </mxCell>
        <mxCell id="eU_o_KIkQ3SQvetF1IrI-65" value="Backend" style="rounded=0;whiteSpace=wrap;html=1;fontSize=6;" vertex="1" parent="1">
          <mxGeometry x="355.5" y="304" width="36" height="20" as="geometry" />
        </mxCell>
        <mxCell id="eU_o_KIkQ3SQvetF1IrI-66" value="Backend" style="rounded=0;whiteSpace=wrap;html=1;fontSize=6;" vertex="1" parent="1">
          <mxGeometry x="563.5" y="443" width="36" height="20" as="geometry" />
        </mxCell>
      </root>
    </mxGraphModel>
  </diagram>
  <diagram name="Copy of Status Quo" id="-qMO5q_vew1vn9nmpWdR">
    <mxGraphModel dx="772" dy="482" grid="1" gridSize="10" guides="1" tooltips="1" connect="1" arrows="1" fold="1" page="1" pageScale="1" pageWidth="827" pageHeight="1169" math="0" shadow="0">
      <root>
        <mxCell id="2zAcbRQoXm-9LPKaIPH2-0" />
        <mxCell id="2zAcbRQoXm-9LPKaIPH2-1" parent="2zAcbRQoXm-9LPKaIPH2-0" />
        <mxCell id="2zAcbRQoXm-9LPKaIPH2-2" value="CHECKOUT" style="ellipse;whiteSpace=wrap;html=1;fontStyle=1;verticalAlign=top;" vertex="1" parent="2zAcbRQoXm-9LPKaIPH2-1">
          <mxGeometry x="294" y="280" width="160" height="80" as="geometry" />
        </mxCell>
        <mxCell id="2zAcbRQoXm-9LPKaIPH2-3" value="PRODUCTS" style="ellipse;whiteSpace=wrap;html=1;fontStyle=1;verticalAlign=top;" vertex="1" parent="2zAcbRQoXm-9LPKaIPH2-1">
          <mxGeometry x="80" y="410" width="160" height="90" as="geometry" />
        </mxCell>
        <mxCell id="2zAcbRQoXm-9LPKaIPH2-4" value="" style="endArrow=classic;html=1;rounded=0;exitX=0.033;exitY=0.65;exitDx=0;exitDy=0;exitPerimeter=0;entryX=0.5;entryY=0;entryDx=0;entryDy=0;dashed=1;" edge="1" parent="2zAcbRQoXm-9LPKaIPH2-1" target="2zAcbRQoXm-9LPKaIPH2-14">
          <mxGeometry width="50" height="50" relative="1" as="geometry">
            <mxPoint x="294.00000000000006" y="330" as="sourcePoint" />
            <mxPoint x="210" y="400" as="targetPoint" />
          </mxGeometry>
        </mxCell>
        <mxCell id="2zAcbRQoXm-9LPKaIPH2-5" value="FULFILLMENT" style="ellipse;whiteSpace=wrap;html=1;fontStyle=1;verticalAlign=top;" vertex="1" parent="2zAcbRQoXm-9LPKaIPH2-1">
          <mxGeometry x="500" y="415" width="160" height="80" as="geometry" />
        </mxCell>
        <mxCell id="2zAcbRQoXm-9LPKaIPH2-6" value="" style="endArrow=classic;html=1;rounded=0;exitX=1;exitY=0.5;exitDx=0;exitDy=0;entryX=-0.058;entryY=0.483;entryDx=0;entryDy=0;entryPerimeter=0;dashed=1;" edge="1" parent="2zAcbRQoXm-9LPKaIPH2-1" source="2zAcbRQoXm-9LPKaIPH2-3" target="2zAcbRQoXm-9LPKaIPH2-13">
          <mxGeometry width="50" height="50" relative="1" as="geometry">
            <mxPoint x="304" y="340" as="sourcePoint" />
            <mxPoint x="470" y="455" as="targetPoint" />
          </mxGeometry>
        </mxCell>
        <mxCell id="2zAcbRQoXm-9LPKaIPH2-7" value="" style="endArrow=classic;html=1;rounded=0;dashed=1;" edge="1" parent="2zAcbRQoXm-9LPKaIPH2-1" source="2zAcbRQoXm-9LPKaIPH2-2">
          <mxGeometry width="50" height="50" relative="1" as="geometry">
            <mxPoint x="250" y="465.0000000000001" as="sourcePoint" />
            <mxPoint x="480" y="440" as="targetPoint" />
          </mxGeometry>
        </mxCell>
        <mxCell id="2zAcbRQoXm-9LPKaIPH2-8" value="" style="shape=cylinder3;whiteSpace=wrap;html=1;boundedLbl=1;backgroundOutline=1;size=4.285714285714278;" vertex="1" parent="2zAcbRQoXm-9LPKaIPH2-1">
          <mxGeometry x="358.5" y="330" width="31" height="20" as="geometry" />
        </mxCell>
        <mxCell id="2zAcbRQoXm-9LPKaIPH2-9" value="" style="shape=cylinder3;whiteSpace=wrap;html=1;boundedLbl=1;backgroundOutline=1;size=4.285714285714278;" vertex="1" parent="2zAcbRQoXm-9LPKaIPH2-1">
          <mxGeometry x="144.5" y="470" width="31" height="20" as="geometry" />
        </mxCell>
        <mxCell id="2zAcbRQoXm-9LPKaIPH2-10" value="" style="shape=cylinder3;whiteSpace=wrap;html=1;boundedLbl=1;backgroundOutline=1;size=4.285714285714278;" vertex="1" parent="2zAcbRQoXm-9LPKaIPH2-1">
          <mxGeometry x="564.5" y="470" width="31" height="20" as="geometry" />
        </mxCell>
        <mxCell id="2zAcbRQoXm-9LPKaIPH2-11" value="Orders API" style="rounded=0;whiteSpace=wrap;html=1;fontSize=6;" vertex="1" parent="2zAcbRQoXm-9LPKaIPH2-1">
          <mxGeometry x="430" y="320" width="40" height="20" as="geometry" />
        </mxCell>
        <mxCell id="2zAcbRQoXm-9LPKaIPH2-12" value="" style="endArrow=classic;html=1;rounded=0;exitX=0;exitY=0;exitDx=0;exitDy=0;entryX=0.5;entryY=1;entryDx=0;entryDy=0;dashed=1;" edge="1" parent="2zAcbRQoXm-9LPKaIPH2-1" source="2zAcbRQoXm-9LPKaIPH2-5" target="2zAcbRQoXm-9LPKaIPH2-11">
          <mxGeometry width="50" height="50" relative="1" as="geometry">
            <mxPoint x="250" y="465" as="sourcePoint" />
            <mxPoint x="510" y="465" as="targetPoint" />
          </mxGeometry>
        </mxCell>
        <mxCell id="2zAcbRQoXm-9LPKaIPH2-13" value="Inventory API" style="rounded=0;whiteSpace=wrap;html=1;fontSize=6;" vertex="1" parent="2zAcbRQoXm-9LPKaIPH2-1">
          <mxGeometry x="480" y="445" width="40" height="20" as="geometry" />
        </mxCell>
        <mxCell id="2zAcbRQoXm-9LPKaIPH2-14" value="Articles API" style="rounded=0;whiteSpace=wrap;html=1;fontSize=6;" vertex="1" parent="2zAcbRQoXm-9LPKaIPH2-1">
          <mxGeometry x="200" y="410" width="40" height="20" as="geometry" />
        </mxCell>
        <mxCell id="2zAcbRQoXm-9LPKaIPH2-15" value="UI" style="rounded=0;whiteSpace=wrap;html=1;fontSize=6;" vertex="1" parent="2zAcbRQoXm-9LPKaIPH2-1">
          <mxGeometry x="355.5" y="264" width="36" height="20" as="geometry" />
        </mxCell>
        <mxCell id="2zAcbRQoXm-9LPKaIPH2-16" value="UI" style="rounded=0;whiteSpace=wrap;html=1;fontSize=6;" vertex="1" parent="2zAcbRQoXm-9LPKaIPH2-1">
          <mxGeometry x="140.5" y="395" width="36" height="20" as="geometry" />
        </mxCell>
        <mxCell id="2zAcbRQoXm-9LPKaIPH2-17" value="UI" style="rounded=0;whiteSpace=wrap;html=1;fontSize=6;" vertex="1" parent="2zAcbRQoXm-9LPKaIPH2-1">
          <mxGeometry x="562.5" y="400" width="36" height="20" as="geometry" />
        </mxCell>
        <mxCell id="2zAcbRQoXm-9LPKaIPH2-18" value="Controlling" style="ellipse;whiteSpace=wrap;html=1;fontStyle=1;verticalAlign=top;fontColor=#CC0000;strokeColor=#CC0000;" vertex="1" parent="2zAcbRQoXm-9LPKaIPH2-1">
          <mxGeometry x="270" y="600" width="160" height="80" as="geometry" />
        </mxCell>
        <mxCell id="2zAcbRQoXm-9LPKaIPH2-19" value="" style="shape=cylinder3;whiteSpace=wrap;html=1;boundedLbl=1;backgroundOutline=1;size=6.931034482758662;strokeColor=#CC0000;" vertex="1" parent="2zAcbRQoXm-9LPKaIPH2-1">
          <mxGeometry x="315" y="635" width="70" height="40" as="geometry" />
        </mxCell>
        <mxCell id="2zAcbRQoXm-9LPKaIPH2-20" value="" style="endArrow=none;html=1;rounded=0;fontSize=6;fontColor=#CC0000;entryX=0.5;entryY=0;entryDx=0;entryDy=0;entryPerimeter=0;exitX=0.5;exitY=1;exitDx=0;exitDy=0;strokeColor=#CC0000;startArrow=classic;startFill=1;endFill=0;dashed=1;" edge="1" parent="2zAcbRQoXm-9LPKaIPH2-1" source="2zAcbRQoXm-9LPKaIPH2-36" target="2zAcbRQoXm-9LPKaIPH2-19">
          <mxGeometry width="50" height="50" relative="1" as="geometry">
            <mxPoint x="530" y="260" as="sourcePoint" />
            <mxPoint x="730" y="230" as="targetPoint" />
          </mxGeometry>
        </mxCell>
        <mxCell id="2zAcbRQoXm-9LPKaIPH2-21" value="" style="endArrow=none;html=1;rounded=0;fontSize=6;fontColor=#CC0000;exitX=0.5;exitY=1;exitDx=0;exitDy=0;strokeColor=#CC0000;entryX=0.145;entryY=0;entryDx=0;entryDy=2.0100000000000118;entryPerimeter=0;dashed=1;startArrow=classic;startFill=1;endFill=0;" edge="1" parent="2zAcbRQoXm-9LPKaIPH2-1" source="2zAcbRQoXm-9LPKaIPH2-35" target="2zAcbRQoXm-9LPKaIPH2-19">
          <mxGeometry width="50" height="50" relative="1" as="geometry">
            <mxPoint x="399.5" y="350" as="sourcePoint" />
            <mxPoint x="770" y="373" as="targetPoint" />
          </mxGeometry>
        </mxCell>
        <mxCell id="2zAcbRQoXm-9LPKaIPH2-22" value="" style="endArrow=none;html=1;rounded=0;fontSize=6;fontColor=#CC0000;exitX=0.25;exitY=1;exitDx=0;exitDy=0;strokeColor=#CC0000;entryX=0.855;entryY=0;entryDx=0;entryDy=2.0100000000000118;entryPerimeter=0;dashed=1;startArrow=classic;startFill=1;endFill=0;" edge="1" parent="2zAcbRQoXm-9LPKaIPH2-1" source="2zAcbRQoXm-9LPKaIPH2-30" target="2zAcbRQoXm-9LPKaIPH2-19">
          <mxGeometry width="50" height="50" relative="1" as="geometry">
            <mxPoint x="185.5" y="490.0000000000001" as="sourcePoint" />
            <mxPoint x="780" y="383" as="targetPoint" />
          </mxGeometry>
        </mxCell>
        <mxCell id="2zAcbRQoXm-9LPKaIPH2-23" value="Reports" style="rounded=0;whiteSpace=wrap;html=1;fontSize=6;strokeColor=#CC0000;fontColor=#CC0000;" vertex="1" parent="2zAcbRQoXm-9LPKaIPH2-1">
          <mxGeometry x="250" y="630" width="36" height="20" as="geometry" />
        </mxCell>
        <mxCell id="2zAcbRQoXm-9LPKaIPH2-24" value="Carts&lt;br&gt;Payment Events&lt;br&gt;Orders&lt;br&gt;Risk" style="text;html=1;strokeColor=none;fillColor=none;align=center;verticalAlign=middle;whiteSpace=wrap;rounded=0;fontSize=6;fontColor=#CC0000;" vertex="1" parent="2zAcbRQoXm-9LPKaIPH2-1">
          <mxGeometry x="260" y="360" width="60" height="30" as="geometry" />
        </mxCell>
        <mxCell id="2zAcbRQoXm-9LPKaIPH2-25" value="Order Progress&lt;br&gt;Shipments&lt;br&gt;Inventory&lt;br&gt;Returns" style="text;html=1;strokeColor=none;fillColor=none;align=center;verticalAlign=middle;whiteSpace=wrap;rounded=0;fontSize=6;fontColor=#CC0000;" vertex="1" parent="2zAcbRQoXm-9LPKaIPH2-1">
          <mxGeometry x="595.5" y="510" width="60" height="30" as="geometry" />
        </mxCell>
        <mxCell id="2zAcbRQoXm-9LPKaIPH2-26" value="Articles&lt;br&gt;Searches&lt;br&gt;Click Stream&lt;br&gt;Access Logs" style="text;html=1;strokeColor=none;fillColor=none;align=center;verticalAlign=middle;whiteSpace=wrap;rounded=0;fontSize=6;fontColor=#CC0000;" vertex="1" parent="2zAcbRQoXm-9LPKaIPH2-1">
          <mxGeometry x="180" y="495" width="60" height="30" as="geometry" />
        </mxCell>
        <mxCell id="2zAcbRQoXm-9LPKaIPH2-27" value="Backend" style="rounded=0;whiteSpace=wrap;html=1;fontSize=6;" vertex="1" parent="2zAcbRQoXm-9LPKaIPH2-1">
          <mxGeometry x="142" y="440" width="36" height="20" as="geometry" />
        </mxCell>
        <mxCell id="2zAcbRQoXm-9LPKaIPH2-28" value="Backend" style="rounded=0;whiteSpace=wrap;html=1;fontSize=6;" vertex="1" parent="2zAcbRQoXm-9LPKaIPH2-1">
          <mxGeometry x="355.5" y="304" width="36" height="20" as="geometry" />
        </mxCell>
        <mxCell id="2zAcbRQoXm-9LPKaIPH2-29" value="Backend" style="rounded=0;whiteSpace=wrap;html=1;fontSize=6;" vertex="1" parent="2zAcbRQoXm-9LPKaIPH2-1">
          <mxGeometry x="563.5" y="443" width="36" height="20" as="geometry" />
        </mxCell>
        <mxCell id="2zAcbRQoXm-9LPKaIPH2-30" value="Data" style="rounded=0;whiteSpace=wrap;html=1;fontSize=6;fontColor=#CC0000;strokeColor=#CC0000;" vertex="1" parent="2zAcbRQoXm-9LPKaIPH2-1">
          <mxGeometry x="610" y="483" width="40" height="20" as="geometry" />
        </mxCell>
        <mxCell id="2zAcbRQoXm-9LPKaIPH2-31" value="" style="shape=cylinder3;whiteSpace=wrap;html=1;boundedLbl=1;backgroundOutline=1;size=4.285714285714278;strokeColor=#CC0000;" vertex="1" parent="2zAcbRQoXm-9LPKaIPH2-1">
          <mxGeometry x="610" y="460" width="31" height="20" as="geometry" />
        </mxCell>
        <mxCell id="2zAcbRQoXm-9LPKaIPH2-32" value="" style="endArrow=classic;html=1;rounded=0;fontSize=6;fontColor=#CC0000;exitX=1;exitY=0;exitDx=0;exitDy=7.142857142857139;strokeColor=#CC0000;entryX=0;entryY=0.5;entryDx=0;entryDy=0;entryPerimeter=0;exitPerimeter=0;" edge="1" parent="2zAcbRQoXm-9LPKaIPH2-1" source="2zAcbRQoXm-9LPKaIPH2-10" target="2zAcbRQoXm-9LPKaIPH2-31">
          <mxGeometry width="50" height="50" relative="1" as="geometry">
            <mxPoint x="630" y="513" as="sourcePoint" />
            <mxPoint x="384.8499999999999" y="647.01" as="targetPoint" />
          </mxGeometry>
        </mxCell>
        <mxCell id="2zAcbRQoXm-9LPKaIPH2-33" value="" style="editableCssRules=.*;shape=image;verticalLabelPosition=bottom;labelBackgroundColor=#ffffff;verticalAlign=top;aspect=fixed;imageAspect=0;image=data:image/svg+xml,PHN2ZyB4bWxucz0iaHR0cDovL3d3dy53My5vcmcvMjAwMC9zdmciIHhtbG5zOnY9Imh0dHBzOi8vdmVjdGEuaW8vbmFubyIgd2lkdGg9IjIwLjAwMTA0NTIyNzA1MDc4IiBoZWlnaHQ9IjIwLjAwMTA0NTIyNzA1MDc4IiBmaWxsLXJ1bGU9ImV2ZW5vZGQiIHZpZXdCb3g9IjAgMCAyMC4wMDEwNDUyMjcwNTA3OCAyMC4wMDEwNDUyMjcwNTA3OCI+JiN4YTsJPHN0eWxlIHR5cGU9InRleHQvY3NzIj4mI3hhOwkuc3Qwe2ZpbGw6I2FlY2JmYTt9JiN4YTsJLnN0MXtmaWxsOiM2NjlkZjY7fSYjeGE7CS5zdDJ7ZmlsbDojNDI4NWY0O30mI3hhOwk8L3N0eWxlPiYjeGE7CTxwYXRoIGNsYXNzPSJzdDAiIGQ9Ik00LjczIDguODN2Mi42M2E0LjkxIDQuOTEgMCAwIDAgMS43MSAxLjc0VjguODN6Ii8+JiN4YTsJPHBhdGggY2xhc3M9InN0MSIgZD0iTTcuODkgNi40MXY3LjUzQTcuNjIgNy42MiAwIDAgMCA5IDE0YTggOCAwIDAgMCAxIDBWNi40MXoiLz4mI3hhOwk8cGF0aCBjbGFzcz0ic3QwIiBkPSJNMTEuNjQgOS44NnYzLjI5YTUgNSAwIDAgMCAxLjctMS44MlY5Ljg2eiIvPiYjeGE7CTxwYXRoIGNsYXNzPSJzdDIiIGQ9Ik0xNS43NCAxNC4zMmwtMS40MiAxLjQyYS40Mi40MiAwIDAgMCAwIC42bDMuNTQgMy41NGEuNDIuNDIgMCAwIDAgLjU5IDBsMS40My0xLjQzYS40Mi40MiAwIDAgMCAwLS41OWwtMy41NC0zLjU0YS40Mi40MiAwIDAgMC0uNiAwIi8+JiN4YTsJPHBhdGggY2xhc3M9InN0MSIgZD0iTTkgMGE5IDkgMCAxIDAgMCAxOEE5IDkgMCAxIDAgOSAwbTAgMTUuNjlhNi42OCA2LjY4IDAgMCAxIC4wMDctMTMuMzYgNi42OCA2LjY4IDAgMCAxIDQuNzI3IDExLjQwM0E2LjY4IDYuNjggMCAwIDEgOSAxNS42OSIvPiYjeGE7PC9zdmc+;fontSize=6;fontColor=#CC0000;strokeColor=#CC0000;" vertex="1" parent="2zAcbRQoXm-9LPKaIPH2-1">
          <mxGeometry x="620" y="440" width="20" height="20" as="geometry" />
        </mxCell>
        <mxCell id="2zAcbRQoXm-9LPKaIPH2-35" value="Data" style="rounded=0;whiteSpace=wrap;html=1;fontSize=6;fontColor=#CC0000;strokeColor=#CC0000;" vertex="1" parent="2zAcbRQoXm-9LPKaIPH2-1">
          <mxGeometry x="210" y="470" width="40" height="20" as="geometry" />
        </mxCell>
        <mxCell id="2zAcbRQoXm-9LPKaIPH2-36" value="Data" style="rounded=0;whiteSpace=wrap;html=1;fontSize=6;fontColor=#CC0000;strokeColor=#CC0000;" vertex="1" parent="2zAcbRQoXm-9LPKaIPH2-1">
          <mxGeometry x="308.5" y="340" width="40" height="20" as="geometry" />
        </mxCell>
      </root>
    </mxGraphModel>
  </diagram>
</mxfile>
